<svg width="36" height="36" version="1.1" viewBox="0 0 36 36" xmlns="http://www.w3.org/2000/svg"><path d="m22.663 18.64v6.8374h-6.8374v3.4187h6.8374v6.8374h3.4187v-6.8374h6.8374v-3.4187h-6.8374v-6.8374zm-8.058-18.64c-5.869.043114-10.604 4.8127-10.605 10.682-8.57e-5 1.9397.71368 3.7445 1.5274 5.5053l9.1561 19.813 2.6408-5.7157h-3.0882v-6.4284h6.0595l3.5472-7.6754c.81266-1.7585 1.5239-3.5615 1.5241-5.4986-.000857-5.9003-4.7848-10.683-10.685-10.682-.02554-9.4286e-5-.05109-9.4286e-5-.07672 0zm.076714 6.5987c2.2561-.0008571 4.0858 1.827 4.0864 4.0831.000857 2.2574-1.829 4.0877-4.0864 4.0864-2.2561-.000626-4.0843-1.8304-4.0831-4.0864.000626-2.2548 1.8283-4.0825 4.0831-4.0831z" fill="#1f79c9"/></svg>
